<?xml version="1.0" encoding="utf-8"?>
<!-- Generator: Adobe Illustrator 25.3.1, SVG Export Plug-In . SVG Version: 6.00 Build 0)  -->
<svg version="1.1" id="Layer_1" xmlns="http://www.w3.org/2000/svg" xmlns:xlink="http://www.w3.org/1999/xlink" x="0px" y="0px"
	 viewBox="0 0 1366 608" style="enable-background:new 0 0 1366 608;" xml:space="preserve">
<style type="text/css">
	.st0{font-family:'TimesNewRomanPSMT';}
	.st1{font-size:37.3788px;}
	.st2{fill:none;stroke:#000000;stroke-miterlimit:10;}
	.st3{fill:none;stroke:#000000;stroke-width:5;stroke-miterlimit:10;}
	.st4{fill:none;stroke:#000000;stroke-width:3;stroke-miterlimit:10;}
	.st5{font-size:70.0852px;}
	.st6{font-size:58.4043px;}
	.st7{font-size:19.8575px;}
	.st8{font-size:46.7235px;}
</style>
<text transform="matrix(1 0 0 1 174.0882 324.9193)" class="st0 st1">Reduction of Illegal Wildlife Trade</text>
<text transform="matrix(1 0 0 1 325.2478 82.7192)" class="st0 st1">Targeted Help Across Boundaries:</text>
<text transform="matrix(1 0 0 1 325.2478 127.5727)" class="st0 st1">Superpowers helping poorer nations</text>
<text transform="matrix(1 0 0 1 536.0291 505.1313)" class="st0 st1">Legalizations on</text>
<text transform="matrix(1 0 0 1 536.0291 549.9858)" class="st0 st1">Marketing Worldwide</text>
<text transform="matrix(1 0 0 1 26.2068 505.0268)" class="st0 st1">Boomings of Blooms</text>
<text transform="matrix(1 0 0 1 26.2068 549.8813)" class="st0 st1">in Sci-Tech Fields </text>
<text transform="matrix(1 0 0 1 27.8328 84.8031)" class="st0 st1">Improvements </text>
<text transform="matrix(1 0 0 1 27.8328 129.6576)" class="st0 st1">in Ecosystem</text>
<path class="st2" d="M215.58,151.53H55.69c-27.13,0-49.13-22-49.13-49.13V86.18c0-27.13,22-49.13,49.13-49.13h159.9
	c27.13,0,49.13,22,49.13,49.13v16.22C264.71,129.53,242.72,151.53,215.58,151.53z"/>
<path class="st2" d="M838.17,151.53H354.72c-27.13,0-49.13-22-49.13-49.13V86.18c0-27.13,22-49.13,49.13-49.13h483.46
	c27.13,0,49.13,22,49.13,49.13v16.22C887.3,129.53,865.31,151.53,838.17,151.53z"/>
<path class="st2" d="M838.17,570.87H562.64c-27.13,0-49.13-22-49.13-49.13v-16.22c0-27.13,22-49.13,49.13-49.13h275.54
	c27.13,0,49.13,22,49.13,49.13v16.22C887.3,548.88,865.31,570.87,838.17,570.87z"/>
<path class="st2" d="M320.71,570.87H55.69c-27.13,0-49.13-22-49.13-49.13v-16.22c0-27.13,22-49.13,49.13-49.13h265.03
	c27.13,0,49.13,22,49.13,49.13v16.22C369.84,548.88,347.84,570.87,320.71,570.87z"/>
<g>
	<g>
		<line class="st3" x1="832.99" y1="171.97" x2="832.99" y2="391.75"/>
		<g>
			<polygon points="811.35,375.35 832.99,384.53 854.62,375.35 832.99,426.61 			"/>
		</g>
	</g>
</g>
<rect x="148.49" y="270.09" class="st2" width="584.04" height="87.61"/>
<g>
	<g>
		<line class="st4" x1="659.52" y1="443.55" x2="659.52" y2="395.55"/>
		<g>
			<polygon points="672.5,405.39 659.52,399.89 646.55,405.39 659.52,374.63 			"/>
		</g>
	</g>
</g>
<g>
	<g>
		<line class="st4" x1="601.12" y1="374.63" x2="601.12" y2="422.63"/>
		<g>
			<polygon points="588.14,412.8 601.12,418.3 614.1,412.8 601.12,443.55 			"/>
		</g>
	</g>
</g>
<g>
	<g>
		<line class="st4" x1="497.74" y1="478.59" x2="403.02" y2="478.59"/>
		<g>
			<polygon points="412.86,465.62 407.36,478.59 412.86,491.57 382.1,478.59 			"/>
		</g>
	</g>
</g>
<g>
	<g>
		<line class="st4" x1="476.82" y1="549.85" x2="382.1" y2="549.85"/>
		<g>
			<polygon points="466.99,536.87 472.49,549.85 466.99,562.82 497.74,549.85 			"/>
		</g>
	</g>
</g>
<g>
	<g>
		<line class="st3" x1="52.12" y1="426.03" x2="52.12" y2="206.25"/>
		<g>
			<polygon points="73.75,222.65 52.12,213.47 30.49,222.65 52.12,171.39 			"/>
		</g>
	</g>
</g>
<g>
	<g>
		<line class="st4" x1="299.75" y1="94.29" x2="279.84" y2="94.29"/>
		<g>
			<polygon points="284.77,87.81 282.01,94.29 284.77,100.78 269.38,94.29 			"/>
		</g>
	</g>
</g>
<g>
	<g>
		<line class="st4" x1="596.45" y1="167.88" x2="596.45" y2="227.56"/>
		<g>
			<polygon points="583.47,217.73 596.45,223.23 609.43,217.73 596.45,248.48 			"/>
		</g>
	</g>
</g>
<g>
	<g>
		<line class="st4" x1="174.77" y1="448.81" x2="174.77" y2="400.81"/>
		<g>
			<polygon points="187.75,410.65 174.77,405.14 161.79,410.65 174.77,379.89 			"/>
		</g>
	</g>
</g>
<g>
	<g>
		<line class="st4" x1="207.48" y1="168.47" x2="207.48" y2="228.14"/>
		<g>
			<polygon points="194.5,218.31 207.48,223.81 220.45,218.31 207.48,249.06 			"/>
		</g>
	</g>
</g>
<g>
	<g>
		<line class="st4" x1="174.77" y1="248.48" x2="174.77" y2="188.22"/>
		<g>
			<polygon points="187.75,198.05 174.77,192.55 161.79,198.05 174.77,167.3 			"/>
		</g>
	</g>
</g>
<rect x="980.16" y="94.88" class="st4" width="377.29" height="418.76"/>
<text transform="matrix(1 0 0 1 1047.3176 167.5522)" class="st0 st5">Legends</text>
<g>
	<g>
		<line class="st4" x1="1040.9" y1="233.88" x2="1096.49" y2="233.88"/>
		<g>
			<polygon points="1086.66,246.86 1092.16,233.88 1086.66,220.9 1117.41,233.88 			"/>
		</g>
	</g>
</g>
<text transform="matrix(1 0 0 1 1122.4124 253.3148)" class="st0 st6">B</text>
<text transform="matrix(1 0 0 1 995.4055 253.8461)" class="st0 st6">A</text>
<text transform="matrix(1 0 0 1 1176.4397 228.9506)" class="st0 st7">A is one of the</text>
<text transform="matrix(1 0 0 1 1176.4397 252.7787)" class="st0 st7">reasons that trigger B</text>
<line class="st4" x1="980.16" y1="193" x2="1357.46" y2="193"/>
<path class="st2" d="M1119.68,390.79h-74.59c-27.13,0-49.13-22-49.13-49.13l0,0c0-27.13,22-49.13,49.13-49.13h74.59
	c27.13,0,49.13,22,49.13,49.13l0,0C1168.81,368.79,1146.82,390.79,1119.68,390.79z"/>
<text transform="matrix(1 0 0 1 1057.3801 361.5883)" class="st0 st5">X</text>
<text transform="matrix(1 0 0 1 1204.1487 356.5961)" class="st0 st8">Event</text>
<rect x="997.69" y="420.77" class="st2" width="169.37" height="75.93"/>
<text transform="matrix(1 0 0 1 1176.2073 452.3354)" class="st0 st7">The main purpose</text>
<text transform="matrix(1 0 0 1 1176.2073 476.1645)" class="st0 st7">of all the events</text>
<text transform="matrix(1 0 0 1 1064.5002 475.7865)" class="st0 st8">Y</text>
</svg>
