<?xml version="1.0" encoding="utf-8"?>
<!-- Generator: Adobe Illustrator 25.3.1, SVG Export Plug-In . SVG Version: 6.00 Build 0)  -->
<svg version="1.1" id="Layer_1" xmlns="http://www.w3.org/2000/svg" xmlns:xlink="http://www.w3.org/1999/xlink" x="0px" y="0px"
	 viewBox="0 0 1366 768" style="enable-background:new 0 0 1366 768;" xml:space="preserve">
<style type="text/css">
	.st0{fill:#DFE3DD;}
	.st1{font-family:'TimesNewRomanPSMT';}
	.st2{font-size:70px;}
	.st3{fill:#BFBDBE;stroke:#BFBDBE;stroke-width:3;stroke-miterlimit:10;}
	.st4{fill:#BFBDBE;stroke:#BFBDBE;stroke-miterlimit:10;}
	.st5{fill:#ECE6F5;}
	.st6{font-size:40px;}
	.st7{fill:none;stroke:#C6C0CF;stroke-width:3;stroke-miterlimit:10;}
	.st8{font-size:30px;}
	.st9{fill:#C6C0CF;stroke:#C6C0CF;stroke-width:3;stroke-miterlimit:10;}
	.st10{fill:#C6C0CF;stroke:#C6C0CF;stroke-miterlimit:10;}
	.st11{fill:#F8E9D5;}
	.st12{fill:none;stroke:#D5CBB4;stroke-width:3;stroke-miterlimit:10;}
	.st13{fill:#FFFFFF;stroke:#BFBDBE;stroke-width:3;stroke-miterlimit:10;}
	.st14{font-size:21px;}
	.st15{fill:none;stroke:#DCD3D7;stroke-width:3;stroke-miterlimit:10;}
	.st16{fill:none;stroke:#DCD3D7;stroke-width:3;stroke-miterlimit:10;stroke-dasharray:3.1333,3.1333;}
	.st17{fill:none;stroke:#DCD3D7;stroke-width:3;stroke-miterlimit:10;stroke-dasharray:2.8889,2.8889;}
	.st18{fill:none;stroke:#000000;stroke-width:3;stroke-miterlimit:10;}
	.st19{fill:none;stroke:#DCD3D7;stroke-width:3;stroke-miterlimit:10;stroke-dasharray:3.0513,3.0513;}
	.st20{fill:none;stroke:#DCD3D7;stroke-width:3;stroke-miterlimit:10;stroke-dasharray:3.1111,3.1111;}
	.st21{font-size:29px;}
	.st22{fill:none;stroke:#BFBDBE;stroke-width:3;stroke-miterlimit:10;}
	.st23{fill:#BFBDBE;}
	.st24{fill:#DCD3D7;}
</style>
<g>
	<path class="st0" d="M62.42,305.5h163.17c21.49,0,38.92,17.42,38.92,38.92v34.17c0,21.49-17.42,38.92-38.92,38.92H62.42
		c-21.49,0-38.92-17.42-38.92-38.92v-34.17C23.5,322.92,40.92,305.5,62.42,305.5z"/>
	<path class="st0" d="M263,307v70.08c0,21.49-17.42,38.92-38.92,38.92H63.92C42.42,416,25,398.58,25,377.08v-31.17
		C25,324.42,42.42,307,63.92,307H263 M266,304H60.92C39.42,304,22,321.42,22,342.92v37.17C22,401.58,39.42,419,60.92,419h166.17
		c21.49,0,38.92-17.42,38.92-38.92V304H266z"/>
</g>
<text transform="matrix(1 0 0 1 44.4897 384.2246)" class="st1 st2">Project</text>
<g>
	<g>
		<line class="st3" x1="265.5" y1="361.5" x2="453.68" y2="74.48"/>
		<g>
			<polygon class="st4" points="458.35,87.61 451.65,77.58 439.77,75.43 463.5,59.5 			"/>
		</g>
	</g>
</g>
<g>
	<path class="st5" d="M490.63,16.5h315.74c13.88,0,25.13,11.25,25.13,25.13v26.74c0,13.88-11.25,25.13-25.13,25.13H490.63
		c-13.88,0-25.13-11.25-25.13-25.13V41.63C465.5,27.75,476.75,16.5,490.63,16.5z"/>
	<path class="st5" d="M830,18v48.87C830,80.75,818.75,92,804.87,92H492.13C478.25,92,467,80.75,467,66.87V43.13
		C467,29.25,478.25,18,492.13,18H830 M833,15H489.13C475.25,15,464,26.25,464,40.13v29.74C464,83.75,475.25,95,489.13,95h318.74
		C821.75,95,833,83.75,833,69.87V15L833,15z"/>
</g>
<text transform="matrix(1 0 0 1 475.4897 67.2246)" class="st1 st6">Who: Finding Client</text>
<line class="st7" x1="833.5" y1="55.5" x2="1306.5" y2="55.5"/>
<text transform="matrix(1 0 0 1 907.5459 44.2793)" class="st1 st8">Weight-rated Assessment System</text>
<g>
	<g>
		<line class="st3" x1="265" y1="361" x2="449.25" y2="234.16"/>
		<g>
			<polygon class="st4" points="448.61,248.08 446.2,236.26 436.01,229.78 464,224 			"/>
		</g>
	</g>
</g>
<g>
	<path class="st5" d="M490.04,186.5h417.92c13.55,0,24.54,10.99,24.54,24.54v27.92c0,13.55-10.99,24.54-24.54,24.54H490.04
		c-13.55,0-24.54-10.99-24.54-24.54v-27.92C465.5,197.49,476.49,186.5,490.04,186.5z"/>
	<path class="st5" d="M931,188v49.46c0,13.55-10.99,24.54-24.54,24.54H491.54c-13.55,0-24.54-10.99-24.54-24.54v-24.92
		c0-13.55,10.99-24.54,24.54-24.54H931 M934,185H488.54c-13.55,0-24.54,10.99-24.54,24.54v30.92c0,13.55,10.99,24.54,24.54,24.54
		h420.92c13.55,0,24.54-10.99,24.54-24.54V185L934,185z"/>
</g>
<text transform="matrix(1 0 0 1 475.4897 237.2246)" class="st1 st6">What: Developing Contents</text>
<g>
	<line class="st7" x1="933.5" y1="224.5" x2="1306.5" y2="224.5"/>
</g>
<text transform="matrix(1 0 0 1 960.1377 173.04)" class="st1 st8">Measurements regarding</text>
<text transform="matrix(1 0 0 1 960.1377 209.04)" class="st1 st8">illegal wildlife trades</text>
<g>
	<g>
		<line class="st9" x1="699" y1="265" x2="699" y2="285.09"/>
		<g>
			<polygon class="st10" points="687.89,276.67 699,281.38 710.11,276.67 699,303 			"/>
		</g>
	</g>
</g>
<g>
	<path class="st11" d="M490.34,305.5h417.33c13.72,0,24.84,11.12,24.84,24.84v27.33c0,13.72-11.12,24.84-24.84,24.84H490.34
		c-13.72,0-24.84-11.12-24.84-24.84v-27.33C465.5,316.62,476.62,305.5,490.34,305.5z"/>
	<path class="st11" d="M931,307v49.16c0,13.72-11.12,24.84-24.84,24.84H491.84c-13.72,0-24.84-11.12-24.84-24.84v-24.33
		c0-13.72,11.12-24.84,24.84-24.84L931,307 M934,304H488.84c-13.72,0-24.84,11.12-24.84,24.84v30.33
		c0,13.72,11.12,24.84,24.84,24.84h420.33c13.72,0,24.84-11.12,24.84-24.84V304H934z"/>
</g>
<text transform="matrix(1 0 0 1 475.4897 356.2246)" class="st1 st6">Preparations Before Project</text>
<g>
	<g>
		<line class="st3" x1="265.49" y1="361.28" x2="449.74" y2="488.13"/>
		<g>
			<polygon class="st4" points="436.5,492.5 446.69,486.03 449.1,474.2 464.49,498.28 			"/>
		</g>
	</g>
</g>
<g>
	<path class="st5" d="M489.23,456.5h419.54c13.1,0,23.73,10.62,23.73,23.73v29.54c0,13.1-10.62,23.73-23.73,23.73H489.23
		c-13.1,0-23.73-10.62-23.73-23.73v-29.54C465.5,467.12,476.12,456.5,489.23,456.5z"/>
	<path class="st5" d="M931,458v50.27c0,13.1-10.62,23.73-23.73,23.73H490.73c-13.1,0-23.73-10.62-23.73-23.73v-26.54
		c0-13.1,10.62-23.73,23.73-23.73L931,458 M934,455H487.73c-13.1,0-23.73,10.62-23.73,23.73v32.54c0,13.1,10.62,23.73,23.73,23.73
		h422.54c13.1,0,23.73-10.62,23.73-23.73V455L934,455z"/>
</g>
<text transform="matrix(1 0 0 1 475.4897 507.2246)" class="st1 st6">Why: Necessary for clients?</text>
<line class="st12" x1="934" y1="344" x2="1307" y2="344"/>
<text transform="matrix(1 0 0 1 960.6855 293.8057)" class="st1 st8">Measurements regarding</text>
<text transform="matrix(1 0 0 1 960.6855 329.8057)" class="st1 st8">power &amp; resources utilized</text>
<path class="st13" d="M411.5,339.5"/>
<text transform="matrix(1 0 0 1 386.3965 362.5439)" class="st1 st14">Base</text>
<g>
	<path class="st5" d="M489.23,627.5h318.53c13.11,0,23.73,10.63,23.73,23.73v29.53c0,13.11-10.63,23.73-23.73,23.73H489.23
		c-13.11,0-23.73-10.63-23.73-23.73v-29.53C465.5,638.13,476.13,627.5,489.23,627.5z"/>
	<path class="st5" d="M830,629v44.38c0,16.36-13.26,29.62-29.62,29.62H496.62c-16.36,0-29.62-13.26-29.62-29.62v-14.75
		c0-16.36,13.26-29.62,29.62-29.62H830 M833,626H493.62c-16.36,0-29.62,13.26-29.62,29.62v20.75c0,16.36,13.26,29.62,29.62,29.62
		h309.75c16.36,0,29.62-13.26,29.62-29.62V626H833z"/>
</g>
<text transform="matrix(1 0 0 1 475.4897 678.2246)" class="st1 st6">How: What to expect</text>
<g>
	<g>
		<line class="st3" x1="265.62" y1="364.91" x2="453.8" y2="651.93"/>
		<g>
			<polygon class="st4" points="439.89,650.97 451.76,648.83 458.47,638.79 463.62,666.91 			"/>
		</g>
	</g>
</g>
<g>
	<line class="st7" x1="933.5" y1="495.5" x2="1306.5" y2="495.5"/>
</g>
<text transform="matrix(1 0 0 1 960.584 451.5254)" class="st1 st8">Problems clients are faced</text>
<text transform="matrix(1 0 0 1 960.584 487.5254)" class="st1 st8">with, basing on existing data</text>
<g>
	<g>
		<polyline class="st15" points="1305.5,492 1305.5,493.5 1304,493.5 		"/>
		<line class="st16" x1="1300.87" y1="493.5" x2="1258.57" y2="493.5"/>
		<polyline class="st15" points="1257,493.5 1255.5,493.5 1255.5,492 		"/>
		<line class="st17" x1="1255.5" y1="489.11" x2="1255.5" y2="467.44"/>
		<polyline class="st15" points="1255.5,466 1255.5,464.5 1257,464.5 		"/>
		<line class="st16" x1="1260.13" y1="464.5" x2="1302.43" y2="464.5"/>
		<polyline class="st15" points="1304,464.5 1305.5,464.5 1305.5,466 		"/>
		<line class="st17" x1="1305.5" y1="468.89" x2="1305.5" y2="490.56"/>
	</g>
</g>
<line class="st7" x1="833.5" y1="665.5" x2="1306.5" y2="665.5"/>
<text transform="matrix(1 0 0 1 949.0869 655.2881)" class="st1 st8">Expected values of indicators</text>
<path class="st18" d="M1302.5,303.5"/>
<path class="st15" d="M1297.5,316.5c10.63,10.89,21.53,24.41,31,41c39.17,68.61,26.23,141.25,20,168"/>
<g>
	<g>
		<polyline class="st15" points="1304.5,660 1304.5,661.5 1303,661.5 		"/>
		<line class="st19" x1="1299.95" y1="661.5" x2="1185.53" y2="661.5"/>
		<polyline class="st15" points="1184,661.5 1182.5,661.5 1182.5,660 		"/>
		<line class="st20" x1="1182.5" y1="656.89" x2="1182.5" y2="633.56"/>
		<polyline class="st15" points="1182.5,632 1182.5,630.5 1184,630.5 		"/>
		<line class="st19" x1="1187.05" y1="630.5" x2="1301.47" y2="630.5"/>
		<polyline class="st15" points="1303,630.5 1304.5,630.5 1304.5,632 		"/>
		<line class="st20" x1="1304.5" y1="635.11" x2="1304.5" y2="658.44"/>
	</g>
</g>
<g>
	<g>
		<line class="st9" x1="832.5" y1="626.5" x2="917.2" y2="587.92"/>
		<g>
			<polygon class="st10" points="914.14,601.53 913.83,589.46 904.93,581.31 933.5,580.5 			"/>
		</g>
	</g>
</g>
<g>
	<path class="st11" d="M956.88,546.06h327.24c11.26,0,20.38,9.12,20.38,20.38v19.11c0,11.26-9.12,20.38-20.38,20.38H956.88
		c-11.26,0-20.38-9.12-20.38-20.38v-19.11C936.5,555.18,945.62,546.06,956.88,546.06z"/>
	<path class="st11" d="M1303,547.56v36.49c0,11.26-9.12,20.38-20.38,20.38H958.38c-11.26,0-20.38-9.12-20.38-20.38v-16.11
		c0-11.26,9.12-20.38,20.38-20.38H1303 M1306,544.56H955.38c-11.26,0-20.38,9.12-20.38,20.38v22.11c0,11.26,9.12,20.38,20.38,20.38
		h330.24c11.26,0,20.38-9.12,20.38-20.38V544.56L1306,544.56z"/>
</g>
<text transform="matrix(1 0 0 1 944.0293 584.6074)" class="st1 st21">Analysis:Disturbance on goals</text>
<g>
	<line class="st12" x1="934.5" y1="571.5" x2="545.5" y2="571.5"/>
</g>
<text transform="matrix(1 0 0 1 545.375 596.8691)" class="st1 st21">Sensitivity Analysis</text>
<text transform="matrix(1 0 0 1 545.9912 560.0117)" class="st1 st21">Pros &amp; Cons Listings</text>
<g>
	<g>
		<path class="st22" d="M466,257c-9.01,12.25-33.57,48.99-34,102c-0.34,41.53,14.29,73.55,25.61,92.25"/>
		<g>
			<polygon class="st23" points="443.88,450.22 455.75,448.03 462.42,437.97 467.66,466.07 			"/>
		</g>
	</g>
</g>
<g>
	<g>
		<path class="st15" d="M1294.06,188.51c21.48,37.8,59.36,116.15,63.58,222.52c3.65,91.95-19.44,164.9-37.43,208.04"/>
		<g>
			<polygon class="st24" points="1313.27,606.89 1321.59,615.63 1333.66,615.72 1313,635.47 			"/>
		</g>
	</g>
</g>
<g>
	<g>
		<path class="st15" d="M1294.64,189.34c13.69,20.92,39.04,65.87,43.74,128.43c4.5,59.83-12.02,107.54-24.81,135.13"/>
		<g>
			<polygon class="st24" points="1307.2,440.36 1315.07,449.51 1327.12,450.2 1305.5,468.89 			"/>
		</g>
	</g>
</g>
</svg>
