<?xml version="1.0" encoding="utf-8"?>
<!-- Generator: Adobe Illustrator 25.3.1, SVG Export Plug-In . SVG Version: 6.00 Build 0)  -->
<svg version="1.1" id="Layer_1" xmlns="http://www.w3.org/2000/svg" xmlns:xlink="http://www.w3.org/1999/xlink" x="0px" y="0px"
	 viewBox="0 0 2070 1660" style="enable-background:new 0 0 2070 1660;" xml:space="preserve">
<style type="text/css">
	.st0{fill:url(#SVGID_1_);}
	.st1{fill:url(#SVGID_2_);}
	.st2{font-family:'TimesNewRomanPSMT';}
	.st3{font-size:39.3183px;}
	.st4{font-size:123.099px;}
	.st5{fill:url(#SVGID_3_);}
	.st6{fill:url(#SVGID_4_);}
	.st7{font-size:124.2424px;}
	.st8{fill:url(#SVGID_5_);}
	.st9{fill:url(#SVGID_6_);}
	.st10{font-size:123.107px;}
	.st11{font-size:50px;}
	.st12{font-size:39.6868px;}
	.st13{fill:none;stroke:#000000;stroke-width:5;stroke-miterlimit:10;}
	.st14{fill:none;stroke:#000000;stroke-width:5;stroke-miterlimit:10;stroke-dasharray:4.796,4.796;}
	.st15{fill:none;stroke:#000000;stroke-width:5;stroke-miterlimit:10;stroke-dasharray:4.7545,4.7545;}
	.st16{font-size:40px;}
	.st17{fill:none;stroke:#000000;stroke-width:5;stroke-miterlimit:10;stroke-dasharray:4.9934,4.9934;}
	.st18{fill:none;stroke:#000000;stroke-width:5;stroke-miterlimit:10;stroke-dasharray:4.8015,4.8015;}
	.st19{fill:none;}
	.st20{fill:none;stroke:#000000;stroke-width:5;stroke-miterlimit:10;stroke-dasharray:5.001,5.001;}
	.st21{fill:none;stroke:#000000;stroke-width:5;stroke-miterlimit:10;stroke-dasharray:5.5965,5.5965;}
	.st22{fill:none;stroke:#000000;stroke-width:5;stroke-miterlimit:10;stroke-dasharray:5.2106,5.2106;}
	.st23{fill:url(#SVGID_7_);}
	.st24{fill:url(#SVGID_8_);}
	.st25{fill:#939393;}
	.st26{font-size:124.2139px;}
	.st27{font-size:39.6933px;}
	.st28{fill:none;stroke:#939393;stroke-width:5;stroke-miterlimit:10;}
	.st29{fill:none;stroke:#939393;stroke-width:5;stroke-miterlimit:10;stroke-dasharray:4.9646,4.9646;}
	.st30{fill:none;stroke:#939393;stroke-width:5;stroke-miterlimit:10;stroke-dasharray:4.8565,4.8565;}
	.st31{fill:none;stroke:#939393;stroke-width:5;stroke-miterlimit:10;stroke-dasharray:5;}
	.st32{fill:none;stroke:#000000;stroke-width:5;stroke-miterlimit:10;stroke-dasharray:5,5;}
	.st33{fill:none;stroke:#000000;stroke-width:5;stroke-miterlimit:10;stroke-dasharray:4.8673,4.8673;}
	.st34{fill:none;stroke:#939393;stroke-width:5;stroke-miterlimit:10;stroke-dasharray:5,5;}
	.st35{fill:none;stroke:#000000;stroke-width:5;stroke-miterlimit:10;stroke-dasharray:4.9494,4.9494;}
	.st36{fill:url(#SVGID_9_);}
	.st37{fill:url(#SVGID_10_);}
	.st38{font-size:51px;}
	.st39{font-size:36px;}
</style>
<g>
	
		<linearGradient id="SVGID_1_" gradientUnits="userSpaceOnUse" x1="45.78" y1="3145.0449" x2="719.0601" y2="3145.0449" gradientTransform="matrix(1 0 0 -1 0 3446)">
		<stop  offset="0" style="stop-color:#FFFFFF"/>
		<stop  offset="0" style="stop-color:#FF0000"/>
		<stop  offset="0.8052" style="stop-color:#8CC63F"/>
	</linearGradient>
	<rect x="45.78" y="289.72" class="st0" width="673.28" height="22.47"/>
</g>
<g>
	
		<linearGradient id="SVGID_2_" gradientUnits="userSpaceOnUse" x1="3261.6799" y1="-1557.045" x2="3934.96" y2="-1557.045" gradientTransform="matrix(-1 0 0 1 4654 1858)">
		<stop  offset="0" style="stop-color:#FFFFFF"/>
		<stop  offset="0" style="stop-color:#FF0000"/>
		<stop  offset="0.8052" style="stop-color:#8CC63F"/>
	</linearGradient>
	<rect x="719.04" y="289.72" class="st1" width="673.28" height="22.47"/>
</g>
<polygon points="719.18,311.49 706.75,333.25 731.62,333.25 "/>
<text transform="matrix(0.9947 0 0 1 710.1815 370.5762)" class="st2 st3">1</text>
<text transform="matrix(1.0249 0 0 1 48.5957 286.0381)" class="st2 st4">Factor A</text>
<text transform="matrix(1.0249 0 0 1 953.9863 286.0381)" class="st2 st4">Factor A</text>
<g>
	
		<linearGradient id="SVGID_3_" gradientUnits="userSpaceOnUse" x1="-458.3592" y1="2199.0789" x2="221.8345" y2="2199.0789" gradientTransform="matrix(0.9606 0.2778 0.2778 -0.9606 -113.8213 2735.7336)">
		<stop  offset="0" style="stop-color:#FFFFFF"/>
		<stop  offset="0" style="stop-color:#FF0000"/>
		<stop  offset="0.8052" style="stop-color:#8CC63F"/>
	</linearGradient>
	<polygon class="st5" points="706.89,696.29 53.79,506.41 60.07,484.6 713.15,674.49 	"/>
</g>
<g>
	
		<linearGradient id="SVGID_4_" gradientUnits="userSpaceOnUse" x1="3752.0454" y1="-610.1605" x2="4432.2334" y2="-610.1605" gradientTransform="matrix(-0.9606 -0.2778 -0.2778 0.9606 4797.9668 2503.2415)">
		<stop  offset="0" style="stop-color:#FFFFFF"/>
		<stop  offset="0" style="stop-color:#FF0000"/>
		<stop  offset="0.8052" style="stop-color:#8CC63F"/>
	</linearGradient>
	<polygon class="st6" points="713.15,674.49 1366.24,864.37 1359.97,886.16 706.89,696.29 	"/>
</g>
<polygon points="717.21,697.54 704.66,719.52 729.76,719.52 "/>
<text transform="matrix(0.9849 0.2863 -0.2765 0.961 63.921 483.4421)" class="st2 st7">Factor A</text>
<text transform="matrix(0.9849 0.2863 -0.2765 0.961 943.0438 737.0513)" class="st2 st7">Factor B</text>
<g>
	
		<linearGradient id="SVGID_5_" gradientUnits="userSpaceOnUse" x1="45.69" y1="1953.0651" x2="719.01" y2="1953.0651" gradientTransform="matrix(1 0 0 -1 0 3446)">
		<stop  offset="0" style="stop-color:#FFFFFF"/>
		<stop  offset="0" style="stop-color:#FF0000"/>
		<stop  offset="0.8052" style="stop-color:#8CC63F"/>
	</linearGradient>
	<rect x="45.69" y="1481.7" class="st8" width="673.32" height="22.47"/>
</g>
<g>
	
		<linearGradient id="SVGID_6_" gradientUnits="userSpaceOnUse" x1="3261.6799" y1="-365.0651" x2="3935" y2="-365.0651" gradientTransform="matrix(-1 0 0 1 4654 1858)">
		<stop  offset="0" style="stop-color:#FFFFFF"/>
		<stop  offset="0" style="stop-color:#FF0000"/>
		<stop  offset="0.8052" style="stop-color:#8CC63F"/>
	</linearGradient>
	<rect x="719" y="1481.7" class="st9" width="673.32" height="22.47"/>
</g>
<polygon points="1068.45,1504.06 1056.02,1525.83 1080.88,1525.83 "/>
<text transform="matrix(1.0249 0 0 1 44.9424 1475.3398)" class="st2 st10">Factor A</text>
<text transform="matrix(1.0249 0 0 1 950.3184 1475.3398)" class="st2 st10">Factor B</text>
<text transform="matrix(0.9947 0 0 1 1048.126 1568.2627)" class="st2 st11">½</text>
<text transform="matrix(0.9552 0.2777 -0.2792 0.9602 589.013 719.5205)" class="st2 st12">To be balanced</text>
<text transform="matrix(0.9947 0 0 1 2437.208 1909.9092)" style="font-family:'ArialMT'; font-size:12px;">Lorem ipsum</text>
<g>
	<g>
		<polyline class="st13" points="747.58,372.94 747.58,375.44 745.08,375.44 		"/>
		<line class="st14" x1="740.28" y1="375.44" x2="694.72" y2="375.44"/>
		<polyline class="st13" points="692.32,375.44 689.82,375.44 689.82,372.94 		"/>
		<line class="st15" x1="689.82" y1="368.19" x2="689.82" y2="284.98"/>
		<polyline class="st13" points="689.82,282.61 689.82,280.11 692.32,280.11 		"/>
		<line class="st14" x1="697.12" y1="280.11" x2="742.68" y2="280.11"/>
		<polyline class="st13" points="745.08,280.11 747.58,280.11 747.58,282.61 		"/>
		<line class="st15" x1="747.58" y1="287.36" x2="747.58" y2="370.56"/>
	</g>
</g>
<text transform="matrix(1 0 0 1 1449.5704 311.4855)" class="st2 st16">Factor A takes a 50-50 draw in </text>
<text transform="matrix(1 0 0 1 1449.5704 359.4855)" class="st2 st16">importance when compared with</text>
<text transform="matrix(1 0 0 1 1449.5704 407.4855)" class="st2 st16">Factor A itself  </text>
<g>
	<g>
		<polyline class="st13" points="842.02,795.97 841.33,798.37 838.93,797.67 		"/>
		<line class="st17" x1="834.13" y1="796.28" x2="577.6" y2="721.71"/>
		<polyline class="st13" points="575.2,721.01 572.8,720.31 573.5,717.91 		"/>
		<line class="st18" x1="574.84" y1="713.3" x2="600.98" y2="623.39"/>
		<polyline class="st13" points="601.65,621.09 602.35,618.69 604.75,619.38 		"/>
		<line class="st17" x1="609.54" y1="620.78" x2="866.07" y2="695.35"/>
		<polyline class="st13" points="868.47,696.05 870.87,696.75 870.17,699.15 		"/>
		<line class="st18" x1="868.83" y1="703.76" x2="842.69" y2="793.67"/>
	</g>
</g>
<line class="st19" x1="846.57" y1="780.32" x2="1287.26" y2="909.34"/>
<g>
	<g>
		<line class="st13" x1="846.57" y1="780.32" x2="848.97" y2="781.03"/>
		<line class="st20" x1="853.77" y1="782.43" x2="1350.52" y2="927.86"/>
		<line class="st13" x1="1352.92" y1="928.57" x2="1355.32" y2="929.27"/>
	</g>
</g>
<text transform="matrix(1 0 0 1 1448.8074 842.519)" class="st2 st16">Factor B overweighs as the factor</text>
<text transform="matrix(1 0 0 1 1448.8074 890.519)" class="st2 st16">is considered to be more determining</text>
<text transform="matrix(1 0 0 1 1448.8074 938.519)" class="st2 st16">in the assessment for clients than A, </text>
<text transform="matrix(1 0 0 1 1448.8074 986.519)" class="st2 st16">interfering the balance of the virtual</text>
<text transform="matrix(1 0 0 1 1448.8074 1034.519)" class="st2 st16">steelyard</text>
<g>
	<g>
		<polyline class="st13" points="1089.01,1580.45 1089.01,1582.95 1086.51,1582.95 		"/>
		<line class="st21" x1="1080.91" y1="1582.95" x2="1050.12" y2="1582.95"/>
		<polyline class="st13" points="1047.32,1582.95 1044.82,1582.95 1044.82,1580.45 		"/>
		<line class="st22" x1="1044.82" y1="1575.24" x2="1044.82" y2="1484.06"/>
		<polyline class="st13" points="1044.82,1481.45 1044.82,1478.95 1047.32,1478.95 		"/>
		<line class="st21" x1="1052.93" y1="1478.95" x2="1083.71" y2="1478.95"/>
		<polyline class="st13" points="1086.51,1478.95 1089.01,1478.95 1089.01,1481.45 		"/>
		<line class="st22" x1="1089.01" y1="1486.66" x2="1089.01" y2="1577.85"/>
	</g>
</g>
<text transform="matrix(1 0 0 1 1448.5596 1370.8019)" class="st2 st16">The new position of the virtual pivot</text>
<text transform="matrix(1 0 0 1 1448.5596 1418.8019)" class="st2 st16">after the balance returns indicates</text>
<text transform="matrix(1 0 0 1 1448.5596 1466.8019)" class="st2 st16">the significance for Factor A and B</text>
<text transform="matrix(1 0 0 1 1448.5596 1514.8019)" class="st2 st16">when comparing both with each other,</text>
<text transform="matrix(1 0 0 1 1448.5596 1562.8019)" class="st2 st16">as pointer in the sample shows that </text>
<text transform="matrix(1 0 0 1 1448.5596 1610.8019)" class="st2 st16">Factor A is only a half as vital as B </text>
<g>
	
		<linearGradient id="SVGID_7_" gradientUnits="userSpaceOnUse" x1="-183.6667" y1="2025.1884" x2="496.5157" y2="2025.1884" gradientTransform="matrix(0.9885 0.151 0.151 -0.9885 -100.4341 3024.6287)">
		<stop  offset="0" style="stop-color:#FFFFFF"/>
		<stop  offset="0" style="stop-color:#FFA6A6"/>
		<stop  offset="0.8052" style="stop-color:#B2C697"/>
	</linearGradient>
	<polygon class="st23" points="694.39,1109.39 22.2,1005.75 25.6,983.31 697.78,1086.96 	"/>
</g>
<g>
	
		<linearGradient id="SVGID_8_" gradientUnits="userSpaceOnUse" x1="3477.407" y1="-436.2259" x2="4157.5962" y2="-436.2259" gradientTransform="matrix(-0.9885 -0.151 -0.151 0.9885 4739.9102 2157.6421)">
		<stop  offset="0" style="stop-color:#FFFFFF"/>
		<stop  offset="0" style="stop-color:#FFA6A6"/>
		<stop  offset="0.8052" style="stop-color:#B2C697"/>
	</linearGradient>
	<polygon class="st24" points="697.78,1086.96 1369.97,1190.6 1366.58,1213.02 694.39,1109.39 	"/>
</g>
<polygon class="st25" points="933.84,1147.04 921.29,1169.02 946.39,1169.02 "/>
<text transform="matrix(1.0137 0.1563 -0.1496 0.9887 29.2699 981.664)" class="st25 st2 st26">Factor A</text>
<text transform="matrix(1.0137 0.1563 -0.1496 0.9887 933.8448 1119.2015)" class="st25 st2 st26">Factor B</text>
<text transform="matrix(0.9831 0.1516 -0.1524 0.9883 768.9463 1184.2765)" class="st25 st2 st27">Moving for balance...</text>
<text transform="matrix(1 0 0 1 1450.8066 1213.0197)" class="st2 st16">The balance will return when we</text>
<text transform="matrix(1 0 0 1 1450.8066 1261.0197)" class="st2 st16">moved the virtual pivot towards</text>
<text transform="matrix(1 0 0 1 1450.8066 1309.0197)" class="st2 st16">Factor A’s side</text>
<g>
	<g>
		<polyline class="st28" points="1128,1246.64 1127.62,1249.1 1125.15,1248.73 		"/>
		<line class="st29" x1="1120.24" y1="1247.97" x2="730.16" y2="1187.83"/>
		<polyline class="st28" points="727.71,1187.46 725.24,1187.07 725.62,1184.6 		"/>
		<line class="st30" x1="726.36" y1="1179.8" x2="739.31" y2="1095.8"/>
		<polyline class="st28" points="739.68,1093.41 740.06,1090.94 742.53,1091.31 		"/>
		<line class="st29" x1="747.43" y1="1092.07" x2="1137.51" y2="1152.21"/>
		<polyline class="st28" points="1139.97,1152.58 1142.44,1152.97 1142.06,1155.44 		"/>
		<line class="st30" x1="1141.32" y1="1160.24" x2="1128.37" y2="1244.24"/>
	</g>
</g>
<line class="st31" x1="1132.98" y1="1238.36" x2="1355.32" y2="1261.02"/>
<g>
	<g>
		<line class="st32" x1="747.58" y1="350.48" x2="1391.65" y2="350.48"/>
		<g>
			<polygon points="1377.61,369 1385.47,350.48 1377.61,331.97 1421.5,350.48 			"/>
		</g>
	</g>
</g>
<g>
	<g>
		<line class="st13" x1="1352.92" y1="928.57" x2="1355.42" y2="928.57"/>
		<line class="st33" x1="1360.29" y1="928.57" x2="1387.06" y2="928.57"/>
		<line class="st13" x1="1389.49" y1="928.57" x2="1391.99" y2="928.57"/>
		<g>
			<polygon points="1377.95,947.09 1385.81,928.57 1377.95,910.05 1421.84,928.57 			"/>
		</g>
	</g>
</g>
<g>
	<g>
		<line class="st34" x1="1355.32" y1="1261.02" x2="1386.02" y2="1261.02"/>
		<g>
			<polygon class="st25" points="1371.98,1279.54 1379.84,1261.02 1371.98,1242.5 1415.87,1261.02 			"/>
		</g>
	</g>
</g>
<g>
	<g>
		<line class="st13" x1="1089.01" y1="1561.74" x2="1091.51" y2="1561.74"/>
		<line class="st35" x1="1096.45" y1="1561.74" x2="1381.05" y2="1561.74"/>
		<line class="st13" x1="1383.52" y1="1561.74" x2="1386.02" y2="1561.74"/>
		<g>
			<polygon points="1371.98,1580.26 1379.84,1561.74 1371.98,1543.23 1415.87,1561.74 			"/>
		</g>
	</g>
</g>
<g>
	
		<linearGradient id="SVGID_9_" gradientUnits="userSpaceOnUse" x1="45.91" y1="3365.5449" x2="719.19" y2="3365.5449" gradientTransform="matrix(1 0 0 -1 0 3446)">
		<stop  offset="0" style="stop-color:#FFFFFF"/>
		<stop  offset="0" style="stop-color:#FF0000"/>
		<stop  offset="0.8052" style="stop-color:#8CC63F"/>
	</linearGradient>
	<rect x="45.91" y="69.22" class="st36" width="673.28" height="22.47"/>
</g>
<g>
	
		<linearGradient id="SVGID_10_" gradientUnits="userSpaceOnUse" x1="3261.55" y1="-1777.545" x2="3934.8301" y2="-1777.545" gradientTransform="matrix(-1 0 0 1 4654 1858)">
		<stop  offset="0" style="stop-color:#FFFFFF"/>
		<stop  offset="0" style="stop-color:#FF0000"/>
		<stop  offset="0.8052" style="stop-color:#8CC63F"/>
	</linearGradient>
	<rect x="719.17" y="69.22" class="st37" width="673.28" height="22.47"/>
</g>
<polygon points="719.31,90.99 706.88,112.75 731.75,112.75 "/>
<text transform="matrix(0.9947 0 0 1 710.1504 145.314)" class="st2 st3">1</text>
<text transform="matrix(1 0 0 1 45.9149 126.6095)" class="st2 st38">∞</text>
<text transform="matrix(1 0 0 1 1379.2456 123.958)" class="st2 st39">0</text>
<text transform="matrix(1 0 0 1 1450.9668 34.2158)" class="st2 st16">Similar with a steelyard balance,</text>
<text transform="matrix(1 0 0 1 1450.9668 82.2158)" class="st2 st16">factor as a compared object should be</text>
<text transform="matrix(1 0 0 1 1450.9668 130.2158)" class="st2 st16">put on the right, while the to-compare</text>
<text transform="matrix(1 0 0 1 1450.9668 178.2158)" class="st2 st16">one should be put on the left</text>
</svg>
