<?xml version="1.0" encoding="utf-8"?>
<!-- Generator: Adobe Illustrator 25.3.1, SVG Export Plug-In . SVG Version: 6.00 Build 0)  -->
<svg version="1.1" id="Layer_1" xmlns="http://www.w3.org/2000/svg" xmlns:xlink="http://www.w3.org/1999/xlink" x="0px" y="0px"
	 viewBox="0 0 1366 768" style="enable-background:new 0 0 1366 768;" xml:space="preserve">
<style type="text/css">
	.st0{fill:none;stroke:#000000;stroke-width:2;stroke-miterlimit:10;}
	.st1{font-family:'MyriadPro-Regular';}
	.st2{font-size:26px;}
	.st3{font-family:'KozGoPr6N-Regular-83pv-RKSJ-H';}
	.st4{font-size:50.444px;}
	.st5{stroke:#000000;stroke-width:2;stroke-miterlimit:10;}
	.st6{font-size:50.446px;}
	.st7{font-size:33.4882px;}
	.st8{font-size:25px;}
	.st9{font-size:29px;}
	.st10{font-size:33.1501px;}
	.st11{font-size:20px;}
</style>
<g>
	<g>
		<line class="st0" x1="78.5" y1="407.5" x2="137.5" y2="235.5"/>
	</g>
	<g>
		<line class="st0" x1="196.84" y1="407.59" x2="137.84" y2="235.59"/>
	</g>
	<g>
		<line class="st0" x1="137.84" y1="577.59" x2="196.84" y2="405.59"/>
	</g>
	<g>
		<line class="st0" x1="137.84" y1="577.59" x2="78.84" y2="405.59"/>
	</g>
</g>
<text transform="matrix(1 0 0 1 93.1465 415.9512)"><tspan x="0" y="0" class="st1 st2">Official</tspan><tspan x="75.5" y="0" class="st3 st2">?</tspan></text>
<g>
	<line x1="197" y1="406" x2="338" y2="406"/>
	<g>
		<line class="st0" x1="197" y1="406" x2="326.06" y2="406"/>
		<g>
			<polygon points="320.44,413.41 323.59,406 320.44,398.59 338,406 			"/>
		</g>
	</g>
</g>
<text transform="matrix(1 0 0 1 210.1816 397.3887)" class="st1 st4">Y</text>
<line class="st5" x1="138" y1="238" x2="138" y2="97"/>
<text transform="matrix(1 0 0 1 142.1304 228.5391)" class="st1 st6">N</text>
<path class="st0" d="M538.5,440h-167c-18.5,0-33.5-15-33.5-33.5v0c0-18.5,15-33.5,33.5-33.5h167c18.5,0,33.5,15,33.5,33.5v0
	C572,425,557,440,538.5,440z"/>
<text transform="matrix(1 0 0 1 349.4399 423.3496)" class="st1 st6">State Gov.</text>
<g>
	<g>
		<line class="st0" x1="138" y1="97" x2="326.06" y2="97"/>
		<g>
			<polygon points="320.44,104.41 323.59,97 320.44,89.59 338,97 			"/>
		</g>
	</g>
</g>
<path class="st0" d="M421.5,131h-50C353,131,338,116,338,97.5v0C338,79,353,64,371.5,64h50C440,64,455,79,455,97.5v0
	C455,116,440,131,421.5,131z"/>
<text transform="matrix(1 0 0 1 349.4399 114.3496)" class="st1 st6">Org.</text>
<g>
	<g>
		<line class="st0" x1="455" y1="97" x2="597.06" y2="97"/>
		<g>
			<polygon points="591.44,104.41 594.59,97 591.44,89.59 609,97 			"/>
		</g>
	</g>
</g>
<g>
	<line class="st0" x1="705.52" y1="130.73" x2="609" y2="97.62"/>
</g>
<g>
	<line class="st0" x1="705.57" y1="64.32" x2="609.05" y2="97.43"/>
</g>
<g>
	<line class="st0" x1="800.97" y1="97.43" x2="704.45" y2="64.32"/>
</g>
<g>
	<line class="st0" x1="800.97" y1="97.43" x2="704.45" y2="130.54"/>
</g>
<text transform="matrix(1 0 0 1 647 107.2788)" class="st1 st7">4-Profit?</text>
<line class="st5" x1="455" y1="581" x2="455" y2="440"/>
<g>
	<line x1="455" y1="581" x2="596" y2="581"/>
	<g>
		<line class="st0" x1="455" y1="581" x2="584.06" y2="581"/>
		<g>
			<polygon points="578.44,588.41 581.59,581 578.44,573.59 596,581 			"/>
		</g>
	</g>
</g>
<g>
	<line class="st0" x1="693.47" y1="613.73" x2="596.94" y2="580.62"/>
</g>
<g>
	<line class="st0" x1="693.52" y1="547.32" x2="596.99" y2="580.43"/>
</g>
<g>
	<line class="st0" x1="788.92" y1="580.43" x2="692.39" y2="547.32"/>
</g>
<g>
	<line class="st0" x1="788.92" y1="580.43" x2="692.39" y2="613.54"/>
</g>
<text transform="matrix(1 0 0 1 635.9443 590.2788)" class="st1 st8">Hi-Income?</text>
<g>
	<line x1="788" y1="581" x2="929" y2="581"/>
	<g>
		<line class="st0" x1="788" y1="581" x2="917.06" y2="581"/>
		<g>
			<polygon points="911.44,588.41 914.59,581 911.44,573.59 929,581 			"/>
		</g>
	</g>
</g>
<text transform="matrix(1 0 0 1 788.1816 573.3887)" class="st1 st9">Y</text>
<path class="st0" d="M1048.99,603.03h-98.79c-12.16,0-22.01-9.86-22.01-22.01v0c0-12.16,9.86-22.01,22.01-22.01h98.79
	c12.16,0,22.01,9.86,22.01,22.01v0C1071,593.17,1061.14,603.03,1048.99,603.03z"/>
<text transform="matrix(1 0 0 1 935.6953 592.0869)" class="st1 st10">Rich Gov.</text>
<line class="st5" x1="692" y1="728" x2="692" y2="612"/>
<g>
	<line x1="692" y1="728" x2="808" y2="728"/>
	<g>
		<line class="st0" x1="692" y1="728" x2="796.06" y2="728"/>
		<g>
			<polygon points="790.44,735.41 793.59,728 790.44,720.59 808,728 			"/>
		</g>
	</g>
</g>
<text transform="matrix(1 0 0 1 693.4025 641.0401)" class="st1 st9">N</text>
<path class="st0" d="M928.71,749.54h-98.79c-12.16,0-22.01-9.86-22.01-22.01v0c0-12.16,9.86-22.01,22.01-22.01h98.79
	c12.16,0,22.01,9.86,22.01,22.01v0C950.72,739.69,940.87,749.54,928.71,749.54z"/>
<text transform="matrix(1 0 0 1 815.4182 738.6011)" class="st1 st10">Poor Gov.</text>
<line class="st5" x1="705" y1="406" x2="704" y2="131"/>
<g>
	<line x1="705" y1="406" x2="846" y2="406"/>
	<g>
		<line class="st0" x1="705" y1="406" x2="834.06" y2="406"/>
		<g>
			<polygon points="828.44,413.41 831.59,406 828.44,398.59 846,406 			"/>
		</g>
	</g>
</g>
<path class="st0" d="M1048.99,428.54H867.91c-12.16,0-22.01-9.86-22.01-22.01v0c0-12.16,9.86-22.01,22.01-22.01h181.07
	c12.16,0,22.01,9.86,22.01,22.01v0C1071,418.69,1061.14,428.54,1048.99,428.54z"/>
<text transform="matrix(1 0 0 1 853.4182 417.6011)" class="st1 st10">Non-Profit Org.</text>
<text transform="matrix(1 0 0 1 710.7062 153.0401)" class="st1 st9">N</text>
<g>
	<line x1="801" y1="97" x2="942" y2="97"/>
	<g>
		<line class="st0" x1="801" y1="97" x2="930.06" y2="97"/>
		<g>
			<polygon points="924.44,104.41 927.59,97 924.44,89.59 942,97 			"/>
		</g>
	</g>
</g>
<text transform="matrix(1 0 0 1 801.1816 89.3887)" class="st1 st9">Y</text>
<path class="st0" d="M1126.99,119.22H963.28c-12.16,0-22.01-9.86-22.01-22.01v0c0-12.16,9.86-22.01,22.01-22.01h163.71
	c12.16,0,22.01,9.86,22.01,22.01v0C1149,109.37,1139.14,119.22,1126.99,119.22z"/>
<text transform="matrix(1 0 0 1 948.7816 108.2825)" class="st1 st10">For-Profit Org.</text>
<line class="st0" x1="1149" y1="97" x2="1178" y2="97"/>
<line class="st0" x1="1178" y1="66" x2="1178" y2="127"/>
<path class="st0" d="M1233.99,66.05h-110.97c-12.16,0-22.01-9.86-22.01-22.01v0c0-12.16,9.86-22.01,22.01-22.01h110.97
	c12.16,0,22.01,9.86,22.01,22.01v0C1256,56.19,1246.14,66.05,1233.99,66.05z"/>
<text transform="matrix(1 0 0 1 1119.2352 58.6011)" class="st1 st11">Organisations</text>
<text transform="matrix(1 0 0 1 1127.9033 41.2856)" class="st1 st11">For-Wildlife</text>
<path class="st0" d="M1233.99,171.22h-113.97c-12.16,0-22.01-9.86-22.01-22.01v0c0-12.16,9.86-22.01,22.01-22.01h113.97
	c12.16,0,22.01,9.86,22.01,22.01v0C1256,161.37,1246.14,171.22,1233.99,171.22z"/>
<text transform="matrix(1 0 0 1 1118.2352 163.2825)" class="st1 st11">Organisations</text>
<text transform="matrix(1 0 0 1 1105.9033 145.967)" class="st1 st11">For-Environment</text>
<line class="st0" x1="1070.99" y1="406.5" x2="1098.01" y2="406.5"/>
<path class="st0" d="M1199.99,428.22h-77.97c-12.16,0-22.01-9.86-22.01-22.01v0c0-12.16,9.86-22.01,22.01-22.01h77.97
	c12.16,0,22.01,9.86,22.01,22.01v0C1222,418.37,1212.14,428.22,1199.99,428.22z"/>
<text transform="matrix(1 0 0 1 1115.9033 412.967)" class="st1 st11">Enterprises</text>
</svg>
